<svg width="74" height="110" viewBox="0 0 74 110" fill="none" xmlns="http://www.w3.org/2000/svg">
<path d="M37 79.646C46.3889 72.0627 53.4757 64.7727 58.2604 57.7762C63.0451 50.7797 65.4375 44.2571 65.4375 38.2085C65.4375 32.8821 64.467 28.3682 62.526 24.6668C60.5851 20.9654 58.1927 17.9411 55.349 15.5939C52.5052 13.2467 49.4132 11.554 46.0729 10.5158C42.7326 9.47759 39.7083 8.9585 37 8.9585C34.2917 8.9585 31.2674 9.47759 27.9271 10.5158C24.5868 11.554 21.4948 13.2467 18.651 15.5939C15.8073 17.9411 13.4149 20.9654 11.474 24.6668C9.53299 28.3682 8.5625 32.8821 8.5625 38.2085C8.5625 44.2571 10.9549 50.7797 15.7396 57.7762C20.5243 64.7727 27.6111 72.0627 37 79.646ZM37 89.9377C24.6319 80.6391 15.4462 71.7467 9.44271 63.2606C3.43924 54.7745 0.4375 46.4238 0.4375 38.2085C0.4375 32.0696 1.5434 26.6755 3.75521 22.0262C5.96701 17.3769 8.83333 13.4724 12.3542 10.3127C15.875 7.15294 19.8021 4.78315 24.1354 3.20329C28.4688 1.62343 32.7569 0.833496 37 0.833496C41.2431 0.833496 45.5312 1.62343 49.8646 3.20329C54.1979 4.78315 58.125 7.15294 61.6458 10.3127C65.1667 13.4724 68.033 17.3769 70.2448 22.0262C72.4566 26.6755 73.5625 32.0696 73.5625 38.2085C73.5625 46.4238 70.5608 54.7745 64.5573 63.2606C58.5538 71.7467 49.3681 80.6391 37 89.9377ZM37 46.8752C39.6181 46.8752 41.8524 45.9498 43.7031 44.0991C45.5538 42.2484 46.4792 40.0141 46.4792 37.396C46.4792 34.7779 45.5538 32.5436 43.7031 30.6929C41.8524 28.8422 39.6181 27.9168 37 27.9168C34.3819 27.9168 32.1476 28.8422 30.2969 30.6929C28.4462 32.5436 27.5208 34.7779 27.5208 37.396C27.5208 40.0141 28.4462 42.2484 30.2969 44.0991C32.1476 45.9498 34.3819 46.8752 37 46.8752ZM0.4375 109.167V101.042H73.5625V109.167H0.4375Z" fill="white"/>
</svg>
