<svg width="328" height="21" viewBox="0 0 328 21" fill="none" xmlns="http://www.w3.org/2000/svg">
<path d="M6.532 5.581C7.268 5.581 7.85067 5.75733 8.28 6.11L8.671 8.686L7.36 8.847L6.969 7.099C6.70833 7.007 6.44767 6.961 6.187 6.961C5.589 6.961 5.09067 7.214 4.692 7.72C4.29333 8.21067 4.094 8.85467 4.094 9.652V14.689H6.463V16H0.69V14.689H2.484V7.076H0.644V5.765H4.002V7.605C4.20133 7.03767 4.52333 6.56233 4.968 6.179C5.428 5.78033 5.94933 5.581 6.532 5.581ZM20.1232 13.056C19.9852 13.93 19.5482 14.6813 18.8122 15.31C18.0762 15.9233 17.0795 16.23 15.8222 16.23C14.3809 16.23 13.2155 15.7777 12.3262 14.873C11.4369 13.9683 10.9922 12.688 10.9922 11.032C10.9922 9.43733 11.4139 8.12633 12.2572 7.099C13.1005 6.07167 14.2429 5.558 15.6842 5.558C17.0949 5.558 18.1682 6.00267 18.9042 6.892C19.6402 7.78133 20.0159 8.83167 20.0312 10.043C20.0312 10.4417 19.9852 10.848 19.8932 11.262H12.6942C12.7862 13.654 13.8672 14.85 15.9372 14.85C16.7499 14.85 17.3862 14.6583 17.8462 14.275C18.3062 13.8917 18.6129 13.3857 18.7662 12.757L20.1232 13.056ZM18.3292 10.066C18.4059 9.29933 18.2219 8.57867 17.7772 7.904C17.3479 7.22933 16.6349 6.892 15.6382 6.892C14.6875 6.892 13.9899 7.20633 13.5452 7.835C13.1005 8.46367 12.8245 9.20733 12.7172 10.066H18.3292ZM30.5589 13.033C30.5589 14.0297 30.1372 14.8117 29.2939 15.379C28.4659 15.9463 27.4386 16.23 26.2119 16.23C25.4912 16.23 24.7706 16.138 24.0499 15.954C23.3446 15.7547 22.7696 15.5093 22.3249 15.218L22.6469 12.895L23.9349 13.033L23.8659 14.39C24.5712 14.7273 25.3302 14.896 26.1429 14.896C26.8636 14.896 27.4999 14.758 28.0519 14.482C28.6192 14.1907 28.9029 13.7537 28.9029 13.171C28.9029 12.6037 28.6882 12.205 28.2589 11.975C27.8296 11.745 27.2929 11.5763 26.6489 11.469C26.0202 11.3617 25.3839 11.2313 24.7399 11.078C24.0959 10.9247 23.5592 10.664 23.1299 10.296C22.7006 9.91267 22.4859 9.32233 22.4859 8.525C22.4859 7.43633 22.8846 6.66967 23.6819 6.225C24.4792 5.78033 25.3456 5.558 26.2809 5.558C26.9862 5.558 27.6456 5.65 28.2589 5.834C28.8876 6.018 29.4166 6.24033 29.8459 6.501L30.0989 8.893L28.7649 9.054L28.5119 7.398C27.8679 7.06067 27.1702 6.892 26.4189 6.892C25.7749 6.892 25.2459 7.01467 24.8319 7.26C24.4179 7.50533 24.2109 7.88867 24.2109 8.41C24.2109 8.94667 24.4256 9.33 24.8549 9.56C25.2842 9.77467 25.8132 9.93567 26.4419 10.043C27.0706 10.135 27.6992 10.2577 28.3279 10.411C28.9566 10.5643 29.4856 10.8403 29.9149 11.239C30.3442 11.6223 30.5589 12.2203 30.5589 13.033ZM40.3449 13.24C40.0689 15.2333 38.9879 16.23 37.1019 16.23C36.0745 16.23 35.2849 15.9387 34.7329 15.356C34.1962 14.7733 33.9279 13.9837 33.9279 12.987V7.053H32.2719V5.765H33.9279V2.476H35.5379V5.765H39.5399V7.053H35.5379V12.78C35.5379 13.3933 35.6682 13.8917 35.9289 14.275C36.2049 14.643 36.6495 14.827 37.2629 14.827C37.6615 14.827 38.0295 14.7043 38.3669 14.459C38.7195 14.2137 38.9725 13.677 39.1259 12.849L40.3449 13.24ZM42.785 6.547C43.3217 6.19433 43.889 5.94133 44.487 5.788C45.085 5.63467 45.7214 5.558 46.396 5.558C48.834 5.558 50.053 6.70033 50.053 8.985V13.861C50.053 14.597 50.3444 14.965 50.927 14.965C51.1877 14.965 51.4177 14.919 51.617 14.827L51.64 15.885C51.226 16.115 50.7814 16.23 50.306 16.23C49.0947 16.23 48.4737 15.54 48.443 14.16V14.114C48.121 14.666 47.661 15.1567 47.063 15.586C46.4804 16.0153 45.775 16.23 44.947 16.23C44.2724 16.23 43.5824 16.023 42.877 15.609C42.187 15.195 41.842 14.4437 41.842 13.355C41.842 12.067 42.348 11.2237 43.36 10.825C44.3874 10.411 45.476 10.204 46.626 10.204C46.9327 10.204 47.2394 10.2117 47.546 10.227C47.868 10.2423 48.167 10.2653 48.443 10.296V9.376C48.443 8.64 48.282 8.042 47.96 7.582C47.6534 7.122 47.04 6.892 46.12 6.892C45.3687 6.892 44.7094 7.03 44.142 7.306L43.751 9.077L42.417 8.916L42.785 6.547ZM48.443 12.159V11.377C48.1517 11.3617 47.845 11.3387 47.523 11.308C47.201 11.2773 46.8714 11.262 46.534 11.262C45.7674 11.262 45.0697 11.3847 44.441 11.63C43.8277 11.86 43.521 12.3737 43.521 13.171C43.521 13.8303 43.728 14.2827 44.142 14.528C44.556 14.7733 44.9854 14.896 45.43 14.896C46.1354 14.896 46.7947 14.6507 47.408 14.16C48.0367 13.6693 48.3817 13.0023 48.443 12.159ZM65.0582 16H61.6082V14.068C61.2862 14.712 60.8109 15.2333 60.1822 15.632C59.5689 16.0307 58.8559 16.23 58.0432 16.23C57.0465 16.23 56.2032 15.9233 55.5132 15.31C54.8385 14.6813 54.5012 13.6847 54.5012 12.32V7.076H52.7072V5.765H56.1112V11.86C56.1112 12.964 56.3412 13.7383 56.8012 14.183C57.2612 14.6277 57.8515 14.85 58.5722 14.85C59.4462 14.85 60.1592 14.5203 60.7112 13.861C61.2785 13.2017 61.5775 12.504 61.6082 11.768V7.076H59.4692V5.765H63.2182V14.689H65.0582V16ZM72.3848 5.581C73.1208 5.581 73.7034 5.75733 74.1328 6.11L74.5238 8.686L73.2128 8.847L72.8218 7.099C72.5611 7.007 72.3004 6.961 72.0398 6.961C71.4418 6.961 70.9434 7.214 70.5448 7.72C70.1461 8.21067 69.9468 8.85467 69.9468 9.652V14.689H72.3158V16H66.5428V14.689H68.3368V7.076H66.4968V5.765H69.8548V7.605C70.0541 7.03767 70.3761 6.56233 70.8208 6.179C71.2808 5.78033 71.8021 5.581 72.3848 5.581ZM77.834 6.547C78.3706 6.19433 78.938 5.94133 79.536 5.788C80.134 5.63467 80.7703 5.558 81.445 5.558C83.883 5.558 85.102 6.70033 85.102 8.985V13.861C85.102 14.597 85.3933 14.965 85.976 14.965C86.2366 14.965 86.4666 14.919 86.666 14.827L86.689 15.885C86.275 16.115 85.8303 16.23 85.355 16.23C84.1436 16.23 83.5226 15.54 83.492 14.16V14.114C83.17 14.666 82.71 15.1567 82.112 15.586C81.5293 16.0153 80.824 16.23 79.996 16.23C79.3213 16.23 78.6313 16.023 77.926 15.609C77.236 15.195 76.891 14.4437 76.891 13.355C76.891 12.067 77.397 11.2237 78.409 10.825C79.4363 10.411 80.525 10.204 81.675 10.204C81.9816 10.204 82.2883 10.2117 82.595 10.227C82.917 10.2423 83.216 10.2653 83.492 10.296V9.376C83.492 8.64 83.331 8.042 83.009 7.582C82.7023 7.122 82.089 6.892 81.169 6.892C80.4176 6.892 79.7583 7.03 79.191 7.306L78.8 9.077L77.466 8.916L77.834 6.547ZM83.492 12.159V11.377C83.2006 11.3617 82.894 11.3387 82.572 11.308C82.25 11.2773 81.9203 11.262 81.583 11.262C80.8163 11.262 80.1186 11.3847 79.49 11.63C78.8766 11.86 78.57 12.3737 78.57 13.171C78.57 13.8303 78.777 14.2827 79.191 14.528C79.605 14.7733 80.0343 14.896 80.479 14.896C81.1843 14.896 81.8436 14.6507 82.457 14.16C83.0856 13.6693 83.4306 13.0023 83.492 12.159ZM100.521 16H95.3461V14.689H97.1171V9.928C97.1171 8.824 96.8948 8.04967 96.4501 7.605C96.0055 7.145 95.4381 6.915 94.7481 6.915C93.8281 6.915 93.0845 7.22167 92.5171 7.835C91.9651 8.433 91.6738 9.123 91.6431 9.905V14.689H93.4371V16H88.2391V14.689H90.0331V7.076H88.1931V5.765H91.6431V7.582C92.3791 6.23267 93.5751 5.558 95.2311 5.558C96.2278 5.558 97.0635 5.86467 97.7381 6.478C98.4128 7.09133 98.7501 8.08033 98.7501 9.445V14.689H100.521V16ZM109.612 13.24C109.336 15.2333 108.255 16.23 106.369 16.23C105.341 16.23 104.552 15.9387 104 15.356C103.463 14.7733 103.195 13.9837 103.195 12.987V7.053H101.539V5.765H103.195V2.476H104.805V5.765H108.807V7.053H104.805V12.78C104.805 13.3933 104.935 13.8917 105.196 14.275C105.472 14.643 105.916 14.827 106.53 14.827C106.928 14.827 107.296 14.7043 107.634 14.459C107.986 14.2137 108.239 13.677 108.393 12.849L109.612 13.24ZM125.037 13.033C125.037 14.0297 124.615 14.8117 123.772 15.379C122.944 15.9463 121.916 16.23 120.69 16.23C119.969 16.23 119.248 16.138 118.528 15.954C117.822 15.7547 117.247 15.5093 116.803 15.218L117.125 12.895L118.413 13.033L118.344 14.39C119.049 14.7273 119.808 14.896 120.621 14.896C121.341 14.896 121.978 14.758 122.53 14.482C123.097 14.1907 123.381 13.7537 123.381 13.171C123.381 12.6037 123.166 12.205 122.737 11.975C122.307 11.745 121.771 11.5763 121.127 11.469C120.498 11.3617 119.862 11.2313 119.218 11.078C118.574 10.9247 118.037 10.664 117.608 10.296C117.178 9.91267 116.964 9.32233 116.964 8.525C116.964 7.43633 117.362 6.66967 118.16 6.225C118.957 5.78033 119.823 5.558 120.759 5.558C121.464 5.558 122.123 5.65 122.737 5.834C123.365 6.018 123.894 6.24033 124.324 6.501L124.577 8.893L123.243 9.054L122.99 7.398C122.346 7.06067 121.648 6.892 120.897 6.892C120.253 6.892 119.724 7.01467 119.31 7.26C118.896 7.50533 118.689 7.88867 118.689 8.41C118.689 8.94667 118.903 9.33 119.333 9.56C119.762 9.77467 120.291 9.93567 120.92 10.043C121.548 10.135 122.177 10.2577 122.806 10.411C123.434 10.5643 123.963 10.8403 124.393 11.239C124.822 11.6223 125.037 12.2203 125.037 13.033ZM138.181 10.595C138.181 11.4997 138.02 12.389 137.698 13.263C137.391 14.1217 136.893 14.8347 136.203 15.402C135.528 15.954 134.631 16.23 133.512 16.23C131.963 16.23 130.836 15.655 130.131 14.505V19.588H132.5V20.899H126.704V19.588H128.521V7.076H126.681V5.765H130.131V7.904C130.437 7.29067 130.882 6.74633 131.465 6.271C132.047 5.79567 132.814 5.558 133.765 5.558C135.083 5.558 136.149 6.00267 136.962 6.892C137.774 7.78133 138.181 9.01567 138.181 10.595ZM136.479 10.733C136.479 9.50633 136.18 8.571 135.582 7.927C134.984 7.26767 134.24 6.938 133.351 6.938C132.431 6.938 131.672 7.306 131.074 8.042C130.476 8.76267 130.161 9.514 130.131 10.296V11.814C130.131 12.6727 130.43 13.3933 131.028 13.976C131.626 14.5587 132.346 14.85 133.19 14.85C134.34 14.85 135.175 14.436 135.697 13.608C136.218 12.78 136.479 11.8217 136.479 10.733ZM149.515 13.056C149.377 13.93 148.94 14.6813 148.204 15.31C147.468 15.9233 146.472 16.23 145.214 16.23C143.773 16.23 142.608 15.7777 141.718 14.873C140.829 13.9683 140.384 12.688 140.384 11.032C140.384 9.43733 140.806 8.12633 141.649 7.099C142.493 6.07167 143.635 5.558 145.076 5.558C146.487 5.558 147.56 6.00267 148.296 6.892C149.032 7.78133 149.408 8.83167 149.423 10.043C149.423 10.4417 149.377 10.848 149.285 11.262H142.086C142.178 13.654 143.259 14.85 145.329 14.85C146.142 14.85 146.778 14.6583 147.238 14.275C147.698 13.8917 148.005 13.3857 148.158 12.757L149.515 13.056ZM147.721 10.066C147.798 9.29933 147.614 8.57867 147.169 7.904C146.74 7.22933 146.027 6.892 145.03 6.892C144.08 6.892 143.382 7.20633 142.937 7.835C142.493 8.46367 142.217 9.20733 142.109 10.066H147.721ZM160.618 12.55C160.48 13.4393 160.074 14.275 159.399 15.057C158.74 15.839 157.705 16.23 156.294 16.23C154.883 16.23 153.756 15.7777 152.913 14.873C152.07 13.953 151.648 12.6727 151.648 11.032C151.648 9.62133 152.047 8.35633 152.844 7.237C153.641 6.11767 154.837 5.558 156.432 5.558C157.107 5.558 157.728 5.63467 158.295 5.788C158.862 5.94133 159.407 6.21733 159.928 6.616L160.319 9.077L158.985 9.238L158.594 7.513C157.981 7.12967 157.252 6.938 156.409 6.938C155.32 6.938 154.538 7.329 154.063 8.111C153.588 8.893 153.35 9.836 153.35 10.94C153.35 12.1667 153.618 13.125 154.155 13.815C154.692 14.505 155.466 14.85 156.478 14.85C158.011 14.85 158.931 13.9837 159.238 12.251L160.618 12.55ZM164.273 3.12V1.027H166.021V3.12H164.273ZM167.838 16H162.64V14.689H164.434V7.076H162.594V5.765H166.044V14.689H167.838V16ZM170.627 6.547C171.164 6.19433 171.731 5.94133 172.329 5.788C172.927 5.63467 173.564 5.558 174.238 5.558C176.676 5.558 177.895 6.70033 177.895 8.985V13.861C177.895 14.597 178.187 14.965 178.769 14.965C179.03 14.965 179.26 14.919 179.459 14.827L179.482 15.885C179.068 16.115 178.624 16.23 178.148 16.23C176.937 16.23 176.316 15.54 176.285 14.16V14.114C175.963 14.666 175.503 15.1567 174.905 15.586C174.323 16.0153 173.617 16.23 172.789 16.23C172.115 16.23 171.425 16.023 170.719 15.609C170.029 15.195 169.684 14.4437 169.684 13.355C169.684 12.067 170.19 11.2237 171.202 10.825C172.23 10.411 173.318 10.204 174.468 10.204C174.775 10.204 175.082 10.2117 175.388 10.227C175.71 10.2423 176.009 10.2653 176.285 10.296V9.376C176.285 8.64 176.124 8.042 175.802 7.582C175.496 7.122 174.882 6.892 173.962 6.892C173.211 6.892 172.552 7.03 171.984 7.306L171.593 9.077L170.259 8.916L170.627 6.547ZM176.285 12.159V11.377C175.994 11.3617 175.687 11.3387 175.365 11.308C175.043 11.2773 174.714 11.262 174.376 11.262C173.61 11.262 172.912 11.3847 172.283 11.63C171.67 11.86 171.363 12.3737 171.363 13.171C171.363 13.8303 171.57 14.2827 171.984 14.528C172.398 14.7733 172.828 14.896 173.272 14.896C173.978 14.896 174.637 14.6507 175.25 14.16C175.879 13.6693 176.224 13.0023 176.285 12.159ZM186 16H180.802V14.689H182.596V1.487H180.779V0.175999H184.206V14.689H186V16ZM189.327 3.12V1.027H191.075V3.12H189.327ZM192.892 16H187.694V14.689H189.488V7.076H187.648V5.765H191.098V14.689H192.892V16ZM203.317 16H194.715L194.646 15.011L201.086 7.076H196.256L195.957 9.123L194.669 8.962L194.945 5.765H203.179L203.248 6.731L196.762 14.689H202.029L202.558 12.619L203.869 12.826L203.317 16ZM214.952 13.056C214.814 13.93 214.377 14.6813 213.641 15.31C212.905 15.9233 211.908 16.23 210.651 16.23C209.21 16.23 208.044 15.7777 207.155 14.873C206.266 13.9683 205.821 12.688 205.821 11.032C205.821 9.43733 206.243 8.12633 207.086 7.099C207.929 6.07167 209.072 5.558 210.513 5.558C211.924 5.558 212.997 6.00267 213.733 6.892C214.469 7.78133 214.845 8.83167 214.86 10.043C214.86 10.4417 214.814 10.848 214.722 11.262H207.523C207.615 13.654 208.696 14.85 210.766 14.85C211.579 14.85 212.215 14.6583 212.675 14.275C213.135 13.8917 213.442 13.3857 213.595 12.757L214.952 13.056ZM213.158 10.066C213.235 9.29933 213.051 8.57867 212.606 7.904C212.177 7.22933 211.464 6.892 210.467 6.892C209.516 6.892 208.819 7.20633 208.374 7.835C207.929 8.46367 207.653 9.20733 207.546 10.066H213.158ZM228.516 16H225.135V13.93C224.797 14.5433 224.337 15.08 223.755 15.54C223.172 16 222.413 16.23 221.478 16.23C220.159 16.23 219.093 15.7853 218.281 14.896C217.483 13.9913 217.085 12.7417 217.085 11.147C217.085 9.78233 217.437 8.50967 218.143 7.329C218.848 6.14833 220.036 5.558 221.708 5.558C223.302 5.558 224.445 6.179 225.135 7.421V1.487H222.651V0.175999H226.745V14.689H228.516V16ZM225.135 11.469V9.836C225.104 8.97733 224.79 8.27967 224.192 7.743C223.594 7.20633 222.888 6.938 222.076 6.938C220.941 6.938 220.105 7.352 219.569 8.18C219.047 9.008 218.787 9.95867 218.787 11.032C218.787 12.2893 219.078 13.24 219.661 13.884C220.259 14.528 221.002 14.85 221.892 14.85C222.812 14.85 223.571 14.482 224.169 13.746C224.782 12.9947 225.104 12.2357 225.135 11.469ZM237.38 3.12V1.027H239.128V3.12H237.38ZM240.945 16H235.747V14.689H237.541V7.076H235.701V5.765H239.151V14.689H240.945V16ZM254.843 16H249.668V14.689H251.439V9.928C251.439 8.824 251.217 8.04967 250.772 7.605C250.327 7.145 249.76 6.915 249.07 6.915C248.15 6.915 247.406 7.22167 246.839 7.835C246.287 8.433 245.996 9.123 245.965 9.905V14.689H247.759V16H242.561V14.689H244.355V7.076H242.515V5.765H245.965V7.582C246.701 6.23267 247.897 5.558 249.553 5.558C250.55 5.558 251.385 5.86467 252.06 6.478C252.735 7.09133 253.072 8.08033 253.072 9.445V14.689H254.843V16ZM267.719 5.581C268.455 5.581 269.037 5.75733 269.467 6.11L269.858 8.686L268.547 8.847L268.156 7.099C267.895 7.007 267.634 6.961 267.374 6.961C266.776 6.961 266.277 7.214 265.879 7.72C265.48 8.21067 265.281 8.85467 265.281 9.652V14.689H267.65V16H261.877V14.689H263.671V7.076H261.831V5.765H265.189V7.605C265.388 7.03767 265.71 6.56233 266.155 6.179C266.615 5.78033 267.136 5.581 267.719 5.581ZM273.168 6.547C273.704 6.19433 274.272 5.94133 274.87 5.788C275.468 5.63467 276.104 5.558 276.779 5.558C279.217 5.558 280.436 6.70033 280.436 8.985V13.861C280.436 14.597 280.727 14.965 281.31 14.965C281.57 14.965 281.8 14.919 282 14.827L282.023 15.885C281.609 16.115 281.164 16.23 280.689 16.23C279.477 16.23 278.856 15.54 278.826 14.16V14.114C278.504 14.666 278.044 15.1567 277.446 15.586C276.863 16.0153 276.158 16.23 275.33 16.23C274.655 16.23 273.965 16.023 273.26 15.609C272.57 15.195 272.225 14.4437 272.225 13.355C272.225 12.067 272.731 11.2237 273.743 10.825C274.77 10.411 275.859 10.204 277.009 10.204C277.315 10.204 277.622 10.2117 277.929 10.227C278.251 10.2423 278.55 10.2653 278.826 10.296V9.376C278.826 8.64 278.665 8.042 278.343 7.582C278.036 7.122 277.423 6.892 276.503 6.892C275.751 6.892 275.092 7.03 274.525 7.306L274.134 9.077L272.8 8.916L273.168 6.547ZM278.826 12.159V11.377C278.534 11.3617 278.228 11.3387 277.906 11.308C277.584 11.2773 277.254 11.262 276.917 11.262C276.15 11.262 275.452 11.3847 274.824 11.63C274.21 11.86 273.904 12.3737 273.904 13.171C273.904 13.8303 274.111 14.2827 274.525 14.528C274.939 14.7733 275.368 14.896 275.813 14.896C276.518 14.896 277.177 14.6507 277.791 14.16C278.419 13.6693 278.764 13.0023 278.826 12.159ZM302.525 16H297.626V14.689H299.121V9.928C299.121 8.824 298.899 8.04967 298.454 7.605C298.025 7.145 297.473 6.915 296.798 6.915C295.863 6.915 295.142 7.26767 294.636 7.973C294.13 8.67833 293.869 9.353 293.854 9.997V14.689H295.625V16H290.749V14.689H292.221V9.928C292.221 8.80867 292.006 8.02667 291.577 7.582C291.148 7.13733 290.603 6.915 289.944 6.915C288.993 6.915 288.265 7.26 287.759 7.95C287.268 8.62467 287.008 9.29167 286.977 9.951V14.689H288.863V16H283.573V14.689H285.367V7.076H283.55V5.765H286.977V7.674C287.314 7.06067 287.767 6.55467 288.334 6.156C288.901 5.75733 289.591 5.558 290.404 5.558C291.201 5.558 291.891 5.75733 292.474 6.156C293.072 6.55467 293.478 7.17567 293.693 8.019C294 7.29833 294.452 6.708 295.05 6.248C295.663 5.788 296.415 5.558 297.304 5.558C298.285 5.558 299.098 5.86467 299.742 6.478C300.401 7.09133 300.731 8.08033 300.731 9.445V14.689H302.525V16ZM313.203 13.056C313.065 13.93 312.628 14.6813 311.892 15.31C311.156 15.9233 310.16 16.23 308.902 16.23C307.461 16.23 306.296 15.7777 305.406 14.873C304.517 13.9683 304.072 12.688 304.072 11.032C304.072 9.43733 304.494 8.12633 305.337 7.099C306.181 6.07167 307.323 5.558 308.764 5.558C310.175 5.558 311.248 6.00267 311.984 6.892C312.72 7.78133 313.096 8.83167 313.111 10.043C313.111 10.4417 313.065 10.848 312.973 11.262H305.774C305.866 13.654 306.947 14.85 309.017 14.85C309.83 14.85 310.466 14.6583 310.926 14.275C311.386 13.8917 311.693 13.3857 311.846 12.757L313.203 13.056ZM311.409 10.066C311.486 9.29933 311.302 8.57867 310.857 7.904C310.428 7.22933 309.715 6.892 308.718 6.892C307.768 6.892 307.07 7.20633 306.625 7.835C306.181 8.46367 305.905 9.20733 305.797 10.066H311.409ZM327.434 16H322.259V14.689H324.03V9.928C324.03 8.824 323.808 8.04967 323.363 7.605C322.918 7.145 322.351 6.915 321.661 6.915C320.741 6.915 319.997 7.22167 319.43 7.835C318.878 8.433 318.587 9.123 318.556 9.905V14.689H320.35V16H315.152V14.689H316.946V7.076H315.106V5.765H318.556V7.582C319.292 6.23267 320.488 5.558 322.144 5.558C323.141 5.558 323.976 5.86467 324.651 6.478C325.326 7.09133 325.663 8.08033 325.663 9.445V14.689H327.434V16Z" fill="#F7F7F7"/>
</svg>
